<svg width="25" height="25" viewBox="0 0 25 25" fill="none" xmlns="http://www.w3.org/2000/svg">
<g id="sort-amount-down 2">
<path id="Vector" d="M6.9562 14.79L6.6662 15.09V7.5C6.6662 7.23478 6.56084 6.98043 6.37331 6.79289C6.18577 6.60536 5.93142 6.5 5.6662 6.5C5.40098 6.5 5.14663 6.60536 4.95909 6.79289C4.77156 6.98043 4.6662 7.23478 4.6662 7.5V15.09L4.3762 14.79C4.1879 14.6017 3.9325 14.4959 3.6662 14.4959C3.3999 14.4959 3.1445 14.6017 2.9562 14.79C2.7679 14.9783 2.66211 15.2337 2.66211 15.5C2.66211 15.7663 2.7679 16.0217 2.9562 16.21L4.9562 18.21C5.0513 18.301 5.16345 18.3724 5.2862 18.42C5.4059 18.4729 5.53533 18.5002 5.6662 18.5002C5.79707 18.5002 5.9265 18.4729 6.0462 18.42C6.16895 18.3724 6.2811 18.301 6.3762 18.21L8.3762 16.21C8.46944 16.1168 8.5434 16.0061 8.59386 15.8842C8.64432 15.7624 8.67029 15.6319 8.67029 15.5C8.67029 15.3681 8.64432 15.2376 8.59386 15.1158C8.5434 14.9939 8.46944 14.8832 8.3762 14.79C8.28296 14.6968 8.17227 14.6228 8.05045 14.5723C7.92863 14.5219 7.79806 14.4959 7.6662 14.4959C7.53434 14.4959 7.40377 14.5219 7.28195 14.5723C7.16013 14.6228 7.04944 14.6968 6.9562 14.79ZM11.6662 8.5H21.6662C21.9314 8.5 22.1858 8.39464 22.3733 8.20711C22.5608 8.01957 22.6662 7.76522 22.6662 7.5C22.6662 7.23478 22.5608 6.98043 22.3733 6.79289C22.1858 6.60536 21.9314 6.5 21.6662 6.5H11.6662C11.401 6.5 11.1466 6.60536 10.9591 6.79289C10.7716 6.98043 10.6662 7.23478 10.6662 7.5C10.6662 7.76522 10.7716 8.01957 10.9591 8.20711C11.1466 8.39464 11.401 8.5 11.6662 8.5ZM21.6662 11.5H11.6662C11.401 11.5 11.1466 11.6054 10.9591 11.7929C10.7716 11.9804 10.6662 12.2348 10.6662 12.5C10.6662 12.7652 10.7716 13.0196 10.9591 13.2071C11.1466 13.3946 11.401 13.5 11.6662 13.5H21.6662C21.9314 13.5 22.1858 13.3946 22.3733 13.2071C22.5608 13.0196 22.6662 12.7652 22.6662 12.5C22.6662 12.2348 22.5608 11.9804 22.3733 11.7929C22.1858 11.6054 21.9314 11.5 21.6662 11.5ZM21.6662 16.5H11.6662C11.401 16.5 11.1466 16.6054 10.9591 16.7929C10.7716 16.9804 10.6662 17.2348 10.6662 17.5C10.6662 17.7652 10.7716 18.0196 10.9591 18.2071C11.1466 18.3946 11.401 18.5 11.6662 18.5H21.6662C21.9314 18.5 22.1858 18.3946 22.3733 18.2071C22.5608 18.0196 22.6662 17.7652 22.6662 17.5C22.6662 17.2348 22.5608 16.9804 22.3733 16.7929C22.1858 16.6054 21.9314 16.5 21.6662 16.5Z" fill="#0A192E"/>
</g>
</svg>
